ply
format ascii 1.0
comment VTK generated PLY File
obj_info vtkPolyData points and polygons: vtk4.0
element vertex 1025
property float x
property float y
property float z
element face 517
property list uchar int vertex_indices
end_header
79.7586 84.036 24.5333 
79.0899 82.7125 24.7844 
79.2965 80.9403 24.6234 
80.9452 79.1266 24.2655 
84.2336 81.0541 20.5067 
85.2506 83.8683 19.015 
83.9776 85.6554 20.2283 
79.6354 86.8634 24.7694 
82.4513 88.6285 20.524 
82.6173 90.7176 19.0262 
82.0117 92.0937 13.4073 
83.1446 90.8286 12.3207 
86.1469 83.7773 15.996 
81.4268 70.8102 25.6057 
83.6016 72.6423 22.2475 
84.9068 70.5008 21.2728 
84.5168 68.7311 23.0176 
84.1517 67.7153 24.3699 
83.294 68.4577 25.2387 
86.9856 63.9379 23.8479 
86.9712 66.2152 21.6971 
84.8457 65.4127 24.6433 
85.7711 64.0968 24.5362 
69.4902 9.64626 62.2509 
72.6407 10.5579 60.4064 
75.2256 12.2882 60.7668 
76.349 13.9606 63.8588 
71.8036 15.5209 69.1097 
68.9732 9.94783 64.5462 
61.696 6.94034 60.0053 
62.3183 6.88251 59.0958 
67.2452 7.89464 58.5824 
64.3352 9.02245 65.1161 
61.5068 7.46087 62.1415 
71.4427 17.3725 70.6039 
69.4928 17.2063 70.9443 
64.0249 13.0576 69.6642 
25.9106 62.6953 5.42946 
26.3733 64.8425 4.75916 
27.9927 70.5829 3.92592 
28.8701 76.8727 6.3483 
26.5614 75.151 12.1716 
24.2744 71.7129 14.5018 
22.961 68.852 14.4111 
23.4815 64.3767 10.728 
91.1254 17.8135 35.4168 
96.6026 22.6467 35.2471 
96.7884 22.5572 33.0533 
86.5832 18.1027 30.1306 
85.6258 17.6808 30.3915 
86.9061 14.5747 32.7837 
90.9428 17.3673 36.8127 
86.123 13.3602 37.1709 
84.2233 13.2734 36.0845 
53.7495 11.8564 69.1858 
53.0115 9.19596 64.7794 
45.3845 11.5852 63.5605 
46.4118 14.0571 68.0771 
51.6212 14.3434 69.9466 
57.9981 20.7194 73.0054 
59.2649 18.8276 72.9219 
58.7352 13.3961 70.7501 
57.8498 11.8894 69.5247 
51.7813 17.2712 71.6272 
52.8334 20.0174 72.7548 
43.6872 18.0447 68.3695 
45.128 20.4129 70.3839 
87.9879 39.0492 43.9163 
88.3159 38.1805 43.0673 
88.9968 36.5216 43.7172 
88.4315 35.8584 46.4681 
86.6031 35.6556 48.7477 
85.8835 38.0296 48.4257 
87.2314 42.6273 42.0992 
87.3024 42.6446 41.6036 
87.677 41.1794 40.0818 
88.1142 40.1756 39.9496 
91.0716 38.1957 40.5802 
88.905 39.6265 38.3926 
89.6125 39.3286 38.4673 
29.0705 60.3144 5.50119 
29.5436 59.2243 6.07571 
27.3101 54.3559 9.97244 
24.4968 52.6599 10.7346 
17.8135 56.7711 12.6548 
19.2842 61.8544 12.5922 
101.589 37.6765 15.4113 
106.129 38.5478 18.5693 
105.84 33.81 19.373 
101.994 33.0534 18.5019 
100.728 34.9608 17.2908 
30.0749 36.5525 52.7544 
27.7285 36.8812 52.4788 
25.9957 35.5575 53.5576 
25.0444 32.851 55.6729 
30.1258 30.5053 56.4643 
30.9349 32.3304 56.0306 
26.9245 26.5774 57.2182 
23.2796 29.6486 55.2006 
22.9774 30.2971 55.1717 
29.3771 27.732 57.5941 
28.7446 46.6468 44.0782 
29.7099 46.4605 44.3278 
29.3749 43.5321 46.6634 
28.0147 44.9153 45.3243 
30.8845 47.6229 44.5328 
28.9311 48.004 41.4454 
29.8722 48.3847 41.1598 
30.8837 49.0272 41.4999 
30.6656 43.8157 47.9465 
31.3825 45.8778 47.9041 
16.8876 62.5189 34.1221 
14.1948 62.6255 27.9472 
15.3615 64.9669 27.364 
19.6696 66.2431 31.7353 
20.8685 64.2172 33.9208 
17.0956 64.2579 18.4795 
15.0374 58.7469 20.2422 
13.2669 60.2815 26.3194 
16.8303 67.021 25.575 
17.2352 67.2366 22.1381 
107.272 40.7981 21.3602 
107.775 39.925 23.5573 
105.493 32.3953 24.7895 
98.4703 45.7229 10.2124 
105.866 48.1149 14.7567 
107.258 46.5066 17.3767 
107.633 44.0712 20.9452 
98.043 39.7913 14.1887 
85.8492 39.41 48.0567 
86.6386 43.487 44.7893 
86.899 43.8543 42.8891 
82.7972 41.9442 49.7143 
81.8509 40.5295 52.0393 
84.5565 37.9677 51.5522 
33.8613 22.6158 59.3259 
35.8297 20.5127 61.1171 
36.4368 23.9443 63.0866 
37.8827 28.3969 62.3379 
37.9707 29.2885 61.5204 
34.586 28.9707 59.133 
33.8489 28.2241 58.8839 
32.4708 18.5896 52.7304 
38.6869 14.141 52.9854 
39.3323 14.9846 57.6642 
38.4885 17.0945 60.9753 
32.4585 21.9526 58.2022 
31.5207 19.6991 53.334 
81.7225 54.306 45.167 
80.4149 53.5525 49.1575 
80.9259 47.8305 49.716 
82.8578 46.6765 47.6348 
83.1871 51.7999 44.2871 
82.8214 52.685 44.2892 
77.2677 50.3954 52.8613 
78.0003 53.8691 51.7052 
79.3275 54.4477 50.0953 
80.5769 47.4257 50.465 
77.8475 49.0404 52.7068 
81.002 40.4251 52.5516 
79.0621 42.4518 53.1335 
22.61 19.5034 38.9389 
27.4095 20.031 33.1719 
32.1569 19.4977 33.142 
33.1712 16.5572 34.9838 
26.7171 17.3124 39.5666 
24.4694 18.6811 40.3727 
20.7183 20.6644 40.0028 
21.7657 21.8065 43.0603 
23.4526 21.0524 43.6645 
30.5981 17.9581 43.1558 
30.2281 18.3341 45.3974 
26.4424 20.6159 49.3524 
23.0188 22.6145 48.2642 
22.4608 22.5345 46.944 
25.9685 77.4508 16.8074 
24.4243 75.1285 18.8657 
39.8202 59.4252 54.1891 
38.4611 59.6251 52.9291 
37.2465 57.7022 52.9352 
36.8909 55.4712 53.0835 
38.1988 53.8649 54.9349 
38.9532 54.4504 55.4453 
42.4247 60.2332 55.3513 
42.3767 55.6949 56.7303 
40.869 54.3985 56.6753 
75.374 43.7901 55.0686 
77.8475 42.6159 54.2242 
74.0882 41.0469 56.5917 
74.146 39.8447 56.7752 
76.9444 37.688 56.493 
78.1775 38.3973 55.2406 
80.4212 38.3394 54.0858 
46.528 9.7768 44.814 
46.4425 9.31163 46.1096 
53.2759 6.709 46.0136 
53.1515 6.94034 43.661 
44.4361 11.8181 42.3659 
45.139 11.5094 37.9227 
53.3552 10.8701 37.6721 
55.0117 9.98612 38.048 
53.9342 6.94034 42.9096 
59.0164 7.05602 42.8114 
60.2659 6.82467 44.6469 
61.8177 6.53549 51.9864 
60.6297 6.59333 53.8352 
54.7031 6.53549 53.7916 
41.8631 14.3816 36.0336 
38.9916 15.2109 35.4966 
36.1408 14.2277 36.4906 
36.6328 13.6796 41.5786 
43.4542 12.4348 42.4381 
44.7104 12.4626 37.3822 
97.7247 23.3369 32.2249 
98.4754 22.0485 28.566 
92.5927 21.8229 26.9072 
87.0778 20.2786 28.3537 
98.8371 25.3585 24.3239 
105.064 31.9504 25.2439 
105.378 33.0575 28.4876 
104.684 31.9761 30.7809 
102.345 29.3617 32.6112 
95.6581 26.1574 23.6391 
94.1869 25.2744 24.394 
93.0065 24.0255 25.3514 
97.1014 26.413 23.472 
50.6583 45.4067 60.9771 
51.6481 42.7742 60.9353 
51.214 41.9895 60.8518 
45.8822 42.9731 59.8764 
45.6338 44.8058 59.8494 
46.2518 45.741 60.0582 
59.0571 42.9217 60.8309 
57.467 40.9383 60.7328 
51.9673 46.8088 61.0188 
57.1798 46.5846 61.0606 
51.4205 39.8807 60.9353 
55.7252 38.5065 60.9164 
49.7794 84.6571 31.2125 
53.139 87.854 32.2427 
52.0454 90.7554 32.535 
47.6308 91.2077 31.4074 
47.1791 86.7543 30.8965 
45.4094 81.6048 31.2556 
43.3226 84.237 30.1121 
44.2673 85.7629 30.3777 
82.7058 24.256 62.1066 
79.0208 21.1064 66.6215 
78.6705 16.6841 63.7336 
81.5779 17.5677 59.7251 
83.4351 21.7799 60.5821 
79.6404 29.7763 66.5734 
78.247 25.2759 68.1332 
82.4513 27.4712 62.0276 
80.0453 30.4573 64.6228 
72.7751 19.6292 70.9589 
72.1133 22.9216 71.8255 
73.4827 26.9518 71.293 
62.0386 83.5155 30.6974 
61.0121 86.8941 32.2009 
64.1057 89.7492 32.535 
68.4045 84.5085 29.553 
66.3729 81.8611 29.3191 
63.5105 82.179 30.0709 
59.3816 87.5489 32.2427 
65.1984 92.3354 32.2266 
59.3907 96.6908 30.8437 
57.8006 95.3588 31.3984 
81.7905 70.2288 27.9571 
83.4831 67.3883 27.7715 
84.0215 64.2958 28.5139 
83.2841 65.7616 28.9758 
87.175 25.1854 53.2807 
84.7212 19.1484 51.307 
84.3252 18.4763 54.0034 
86.0603 22.1246 55.2563 
86.2916 25.3323 55.0613 
86.6108 25.611 54.4408 
82.0853 16.4684 55.0882 
85.889 18.4881 48.44 
81.4426 13.8373 46.6896 
80.4813 13.2445 47.5441 
80.4709 13.8723 53.7243 
78.9124 93.9577 22.1177 
78.563 88.6264 25.5381 
75.6069 84.2086 27.1742 
77.6383 88.5472 26.7528 
77.3302 95.5804 20.9113 
73.5141 96.6093 23.5342 
73.4255 94.5624 26.2285 
74.2847 91.8355 27.3561 
101.021 59.8355 23.3897 
101.592 60.4224 20.088 
104.105 58.0675 16.8517 
104.843 55.7099 15.5728 
106.014 53.0791 16.7774 
106.225 54.0448 23.5973 
103.906 55.1179 25.1186 
99.3197 63.1876 17.1073 
101.219 61.5599 13.4853 
100.325 57.9679 6.42198 
101.917 55.3216 6.93005 
100.393 60.6688 8.92004 
87.7953 43.7642 34.4701 
87.1728 44.5454 35.5202 
85.7383 48.3511 33.655 
86.6695 47.7191 31.6431 
87.6048 46.2079 31.6997 
86.3709 51.4453 31.2971 
85.5976 51.5321 32.1591 
85.2126 49.7136 34.1568 
87.1005 49.0196 30.8838 
57.6518 27.5578 72.7375 
58.4404 29.1666 72.4207 
64.5001 31.0002 71.7248 
66.9445 28.6491 72.2382 
66.2904 24.202 72.9219 
65.1257 20.4674 72.8906 
63.0172 18.4596 72.9219 
71.551 29.9034 71.4183 
73.0839 34.3547 67.7174 
71.657 35.4823 66.8242 
64.7222 33.545 68.8492 
40.9567 93.2421 8.81328 
43.1774 92.3119 4.09298 
47.7004 94.591 3.86835 
48.8559 97.0306 5.90784 
49.962 100.245 14.5154 
48.5721 100.057 18.0141 
45.4388 98.8999 17.5025 
41.4107 96.1609 14.5663 
44.565 95.678 27.8939 
43.0857 96.9335 24.3034 
49.3755 100.519 21.3188 
50.154 98.9577 27.2405 
46.6627 95.7349 28.6509 
54.8296 101.56 14.0076 
57.6049 101.936 18.7147 
55.3996 102.139 22.3033 
78.0801 95.8346 16.6031 
79.2934 94.7752 13.47 
95.9795 59.5381 3.32388 
95.3477 65.0393 3.9472 
97.2355 64.7593 7.52988 
96.5466 66.1646 9.07788 
97.1268 66.2878 14.3267 
74.309 11.3359 41.6583 
69.0268 9.65865 41.8035 
67.8942 9.3391 40.3012 
66.8143 9.69511 37.2569 
67.7795 10.915 36.388 
73.2971 10.6419 36.2956 
59.8958 11.8166 36.2805 
57.2309 11.0373 37.2754 
57.1132 10.2671 37.7557 
60.0056 7.40303 40.6735 
43.9285 34.8237 60.4341 
44.7074 31.9515 62.9228 
43.7508 30.9768 63.3384 
39.6073 31.4629 60.9832 
39.8193 32.9044 60.2208 
41.5842 34.474 60.2253 
45.3821 36.2239 60.5733 
49.1863 36.0081 61.3278 
50.376 33.532 62.8668 
45.1137 37.7447 60.207 
41.0637 38.1754 59.0747 
40.6588 37.3915 59.0855 
24.2197 75.0714 21.7433 
22.5769 73.2875 24.0264 
21.3696 72.4957 23.9001 
19.7221 70.3612 20.7972 
27.0037 79.785 18.1261 
27.741 80.3342 21.6411 
26.1093 76.7172 23.4083 
24.3473 72.551 27.2726 
25.3612 72.8893 27.446 
26.1564 76.4044 24.5317 
56.5663 32.5358 68.5993 
63.4863 34.1859 67.6908 
58.7552 33.7185 67.2001 
81.2847 65.2067 37.1745 
81.7804 64.8242 33.4506 
82.5119 63.2286 33.1615 
84.0649 60.1889 34.2003 
84.2673 57.2674 36.7125 
83.8902 58.4242 38.6636 
83.2841 59.6166 38.8499 
80.7887 68.7403 31.8189 
81.8101 66.7472 31.7415 
79.5826 69.6778 36.1824 
79.5826 69.9425 35.0767 
82.9949 65.7128 30.7411 
98.2474 30.8859 20.3814 
85.3084 54.0597 38.1509 
84.2095 55.7541 40.4123 
84.6722 54.7998 36.8036 
85.5976 49.8548 38.4266 
86.0024 48.8045 37.4967 
85.077 54.0421 35.334 
85.2339 55.1237 32.924 
84.73 57.0595 32.2846 
84.383 59.5441 32.7393 
29.1831 76.948 26.8824 
29.216 74.457 28.9742 
28.3507 73.2129 29.0817 
24.5488 69.5493 30.4277 
26.8162 69.5142 31.3056 
28.7446 72.0904 30.3744 
30.4527 71.3463 32.2427 
32.356 72.4929 32.3919 
32.6591 73.1479 32.3036 
32.3614 75.7076 30.929 
31.4278 75.8811 30.0705 
27.1247 68.059 32.4933 
29.2083 67.0647 34.389 
30.3444 68.2157 34.5724 
24.6367 51.8212 11.8148 
23.3658 47.1365 14.8824 
16.8387 44.5313 17.2908 
15.8784 44.7939 17.2651 
13.5337 50.231 18.0935 
15.7314 55.6442 17.1218 
68.0694 70.5972 48.5528 
66.3381 73.6049 46.6059 
65.0221 74.3966 46.6678 
61.1538 73.3624 49.0867 
61.9371 71.644 50.4242 
65.8374 70.1553 50.5871 
69.5414 69.9452 48.614 
69.7975 66.396 51.8422 
66.6292 67.1406 52.6888 
60.6123 70.829 51.7093 
62.0017 67.09 54.1468 
65.521 65.6441 54.0441 
41.0653 74.2831 40.2531 
39.7969 73.1061 41.431 
42.2407 70.9905 47.0023 
43.7503 72.2474 46.9595 
45.9798 75.9389 42.6217 
45.2928 76.1007 40.645 
42.74 75.5931 39.96 
39.0436 75.2594 36.1936 
40.1363 75.4184 36.6698 
37.2649 71.312 40.6392 
36.8127 73.4698 36.704 
76.1223 56.6216 52.2095 
74.7019 51.2045 54.942 
74.1246 52.1986 55.1445 
74.173 55.985 54.163 
73.452 45.568 56.4457 
70.0106 45.5848 57.6979 
71.1809 45.2353 57.4688 
71.7186 52.7517 56.4664 
69.716 49.4492 57.8447 
82.4666 34.5701 54.2896 
81.0038 33.6359 58.1163 
78.0666 35.0302 58.4577 
77.0116 36.3495 58.0535 
51.3967 31.2026 68.5444 
50.8922 25.2166 72.3225 
49.7011 27.2358 70.7716 
41.3864 91.2907 29.2226 
38.6143 91.3629 26.8177 
37.9211 90.5509 26.7541 
36.9887 84.4648 28.2639 
39.8491 82.4414 29.5145 
40.9995 96.1594 23.8651 
107.633 40.32 27.6067 
106.245 38.0562 29.6937 
104.542 34.2729 34.9143 
105.84 40.3697 32.0378 
104.824 38.8617 34.6907 
103.816 48.3216 32.0154 
105.105 49.53 29.3783 
107.344 47.1246 27.2969 
104.524 44.9499 32.5358 
63.0998 43.2909 60.3297 
64.2413 46.9261 59.9914 
58.592 48.9031 60.7682 
63.8138 42.625 60.0321 
63.5008 39.6435 60.3923 
62.0533 38.9816 60.7076 
68.0905 42.5394 58.5547 
69.0454 44.8151 58.2746 
66.2859 37.9045 59.9628 
64.8549 36.6537 61.2381 
61.5578 37.2695 61.1575 
78.8223 17.9786 30.7913 
77.9065 15.8471 32.2009 
78.4931 13.3918 34.1639 
81.0696 12.5363 36.6549 
59.4907 36.584 61.3513 
83.1256 74.5718 22.0679 
80.0748 72.5667 26.065 
80.4595 74.8703 25.0247 
81.3071 75.9493 24.3491 
37.396 94.3121 18.2265 
35.2222 90.947 23.5555 
32.9408 88.5153 22.4858 
32.6522 88.4866 19.8975 
34.6819 91.161 16.1145 
38.9549 95.4297 18.4602 
32.5395 85.1134 24.9546 
34.2969 83.8314 27.0884 
72.5836 69.6348 46.661 
71.2295 65.1908 51.6398 
73.3054 66.0265 49.5386 
74.1776 67.1531 47.4171 
71.2296 63.8167 52.1222 
66.7469 63.1445 54.6859 
65.8944 63.9705 54.605 
36.0609 36.597 57.035 
31.9503 35.5964 55.297 
31.1737 37.0156 52.8139 
31.6545 39.3593 52.0578 
32.1774 40.0475 52.0535 
33.0823 40.3348 53.8052 
35.7161 38.3724 56.8001 
35.8852 45.9388 54.9211 
33.0401 45.6119 51.5799 
31.9528 42.2899 51.3293 
36.0061 43.839 55.0404 
36.3472 44.6208 55.0689 
88.3233 43.088 34.5007 
89.9342 43.2486 33.522 
89.8676 45.6496 31.677 
88.0908 42.3483 36.7951 
87.1013 42.9463 37.2114 
86.6965 81.3175 15.0772 
86.6965 78.8886 15.4988 
86.0241 75.6374 17.2968 
85.1493 75.9534 19.3707 
56.0429 97.5118 1.39254 
54.8287 98.4661 4.12914 
55.7112 100.519 7.67839 
61.9786 100.002 6.18515 
61.5405 98.495 2.13049 
85.3647 35.1861 51.4315 
31.6364 56.9855 43.9789 
31.0002 59.3121 42.1409 
32.3431 62.8101 43.4772 
33.7986 60.9401 48.323 
33.5655 59.2243 48.7154 
32.0028 56.241 47.8092 
30.2737 62.0873 38.9877 
30.7689 59.3493 41.5464 
32.7616 64.0897 43.3185 
32.0343 65.3931 38.5257 
30.7217 55.7938 39.1889 
31.1159 53.6859 43.8132 
30.8267 53.2138 42.6298 
31.1212 54.2014 39.0818 
30.161 84.0986 13.0516 
31.3184 78.8773 6.31488 
29.4375 84.1517 15.7107 
34.7974 84.7945 5.80535 
34.45 88.7859 11.9782 
35.2525 88.832 10.4413 
35.9456 15.2895 43.4369 
75.8626 76.098 27.6986 
74.2334 78.0543 27.5862 
74.564 79.0161 27.211 
76.9466 79.2356 25.8108 
78.0109 77.5402 25.8352 
76.5751 76.0837 27.2127 
70.9134 77.7392 30.4008 
74.3437 75.4184 31.6511 
72.5578 76.4712 31.7979 
88.4945 31.7269 49.1575 
88.6879 29.7912 50.9325 
86.4957 31.3183 52.4826 
85.9446 31.2704 53.3425 
88.1614 26.7301 51.0979 
102.023 29.984 35.1363 
97.6807 24.0792 36.3328 
86.6734 74.176 17.0845 
88.4315 75.2349 12.1661 
87.4483 72.9277 15.4797 
86.1594 71.8326 19.4243 
97.5697 25.9044 39.8723 
97.9745 27.6197 40.3033 
99.9236 32.1867 39.9924 
101.468 33.2269 39.0107 
102.833 32.2166 35.9189 
94.3305 22.2959 40.6088 
92.9428 19.8667 40.0545 
91.439 18.3038 37.6146 
82.395 60.3492 40.6655 
82.5305 56.9834 42.8962 
81.4334 55.6016 44.9797 
80.3923 58.5563 46.3218 
79.0042 64.7781 43.4199 
80.0453 64.5821 41.0472 
79.4872 58.9544 47.4961 
78.1219 60.8363 47.7984 
77.6357 64.672 46.1702 
78.2088 65.3221 44.0493 
40.824 79.6983 31.2215 
39.4728 81.3525 29.5172 
37.5473 80.6353 29.4862 
34.9909 80.4171 28.8866 
89.1834 23.6571 49.3092 
86.8938 18.9442 48.2454 
90.899 31.211 47.3658 
92.4119 25.1806 47.0041 
93.0584 24.6217 45.7123 
92.7114 22.7296 45.1653 
87.5112 18.4112 45.4371 
15.4403 29.3808 47.4673 
16.3949 28.7186 47.6757 
17.9584 25.2744 46.5657 
14.8875 25.5511 39.4885 
13.3023 29.1893 41.5704 
16.8882 24.1177 33.1999 
20.8789 25.9075 29.9211 
26.5281 23.1638 31.1363 
27.591 22.238 31.8485 
55.6802 101.965 12.7021 
67.7637 75.7505 40.5965 
65.9655 76.7679 40.5638 
63.072 76.7221 42.7243 
62.5601 76.5173 44.0342 
68.8106 74.1315 44.4164 
71.5879 74.2012 40.7912 
71.9824 72.9893 43.0206 
73.1878 71.4277 43.5998 
99.4372 55.4261 28.4332 
97.2226 52.3685 31.6839 
93.7885 53.6951 28.0067 
96.9526 56.4608 27.7967 
97.9139 59.4954 25.6438 
102.804 54.7362 28.1264 
91.2955 53.9906 27.732 
90.9899 57.1489 25.9532 
95.3492 59.8288 25.5185 
92.6173 53.1243 28.0286 
66.2359 7.65224 51.6504 
67.6599 7.65682 54.9227 
52.8392 7.57654 57.7383 
53.6201 7.42176 59.0389 
35.2801 63.238 48.7025 
35.6319 66.3881 46.3244 
34.6153 66.109 44.1668 
30.6494 23.981 57.8551 
59.7095 57.4953 58.7009 
58.2127 56.6388 59.0141 
59.2579 52.5709 60.1418 
64.4992 52.2726 59.5153 
65.1526 55.8358 58.2017 
64.6847 56.3325 58.2029 
38.4341 62.8948 51.7798 
80.0315 65.3611 40.1503 
83.8815 55.4103 41.5068 
45.8955 9.93337 51.8742 
46.3438 9.99662 57.6255 
85.4408 58.1178 28.1638 
85.9732 57.6443 27.896 
86.1832 55.6786 28.089 
85.5976 53.344 31.9558 
85.2256 60.4314 28.2332 
84.856 61.08 29.1706 
36.5399 70.3867 41.4739 
37.767 68.6197 46.7826 
38.4073 68.7156 47.3189 
47.9298 73.5163 47.4888 
49.287 72.9494 48.7214 
48.7452 71.4841 50.5158 
43.7779 69.6348 50.3996 
43.6662 67.2234 52.1855 
42.0469 65.207 52.2488 
40.3027 64.8081 51.8221 
76.966 95.8664 8.01347 
78.2459 93.0903 4.82691 
78.0943 92.4801 2.95872 
72.1717 95.8346 2.00014 
72.7873 97.5552 7.93418 
71.6932 99.1775 16.5129 
70.7157 99.5361 12.8777 
72.1486 97.9971 22.9256 
66.8612 100.808 10.8328 
64.3661 100.982 10.893 
63.1673 101.792 12.5858 
63.3409 101.734 18.6964 
65.4751 101.719 19.029 
68.8367 99.2179 24.2847 
37.8555 49.099 55.3579 
40.7086 48.0647 57.9178 
41.8951 48.9285 58.2206 
33.9859 53.6594 51.1518 
33.6607 50.7313 51.3292 
37.0156 48.3441 54.9936 
44.7967 78.166 34.5255 
43.126 77.6362 34.1035 
40.108 78.4335 32.225 
47.8506 80.3779 32.5611 
47.3385 79.5363 34.2683 
47.1705 77.5802 38.002 
47.9683 77.8954 37.8927 
49.991 78.3644 35.9419 
52.2523 81.8783 31.5038 
54.2393 80.2769 31.9491 
69.5076 76.9841 35.6674 
67.6325 78.4121 34.6863 
66.8444 78.4831 35.1917 
64.6187 78.4259 38.0232 
64.2295 79.6983 34.3559 
64.7902 79.362 32.0636 
67.2226 78.4607 32.1637 
90.7964 49.2783 29.8203 
91.9544 47.5101 31.2299 
92.7484 47.1593 31.6752 
94.9903 47.5649 33.0507 
97.8091 49.4933 33.2659 
75.0891 60.3645 51.5205 
75.9258 60.9521 50.0476 
43.3605 63.6462 54.5719 
43.3193 60.9858 55.3149 
33.5361 16.4833 46.7139 
27.8727 21.2837 52.7501 
29.0142 20.8599 53.1229 
31.3472 50.3133 46.6083 
31.5374 52.0619 46.625 
32.4243 47.6219 48.3383 
86.1606 16.4681 40.1462 
86.8204 16.7725 42.7959 
85.7972 49.3653 40.3869 
50.8403 77.8186 41.2526 
49.8482 76.5751 43.4274 
48.6985 76.0546 43.5464 
41.8869 76.4595 36.659 
51.1281 32.6622 65.3059 
50.2491 31.9256 66.7233 
44.1197 29.0966 66.8242 
43.2036 29.6121 64.7476 
87.3796 53.6306 27.7814 
84.0938 32.0924 54.5834 
84.9359 28.9072 56.6961 
32.1842 54.9146 47.9828 
31.9834 52.5153 47.4859 
33.0823 49.6898 49.9574 
32.9666 47.7846 49.7533 
76.0546 69.966 42.8148 
78.021 69.6926 39.9266 
77.6232 70.3867 38.5442 
75.4979 73.4638 37.5509 
73.2742 74.493 38.2986 
70.5424 76.5517 35.5146 
75.763 73.6962 32.8443 
77.0069 72.8158 32.6382 
79.1555 71.5434 29.9084 
78.6884 73.0493 27.2564 
91.4927 34.4043 44.3639 
92.4222 37.4584 40.7691 
97.3463 34.8375 42.1023 
93.6079 37.7271 40.6548 
95.8327 32.2002 44.8557 
60.6933 60.5507 57.4688 
64.3627 59.9765 57.2182 
66.9539 61.1499 55.4015 
59.8337 63.1578 56.7878 
59.5216 61.898 57.3383 
73.3081 61.2183 52.1405 
70.2054 59.2413 55.1717 
60.9402 101.242 20.484 
61.5629 99.4217 27.6485 
66.5417 97.4837 28.0039 
60.6399 98.9577 28.4214 
68.3063 93.4344 29.4838 
48.539 63.3762 56.1793 
47.3699 61.3928 56.4437 
48.5824 60.0093 57.9178 
54.2678 60.4722 57.7792 
54.0103 63.9334 56.55 
52.3071 64.7287 56.1323 
48.5235 57.3026 58.4503 
51.757 56.5354 59.3691 
54.5247 57.7592 58.9723 
58.426 65.1908 56.007 
45.8831 55.0433 58.4539 
51.8787 52.0751 60.2357 
46.8956 51.5596 60.0005 
107.749 50.6432 23.9923 
107.807 47.2276 25.0571 
94.6779 39.6693 39.778 
93.0011 41.7977 37.2219 
100.519 38.6464 39.0148 
87.7375 58.7973 26.2568 
89.0677 57.0827 26.132 
88.132 52.8366 28.0244 
89.7391 57.3855 25.8944 
89.7895 60.4729 24.4326 
88.195 61.5427 24.0386 
20.8205 68.0615 30.378 
23.4569 68.1504 30.9673 
25.5516 66.6157 32.7511 
25.1741 65.4244 33.8143 
24.5813 61.5654 35.6291 
26.0661 61.5083 35.5263 
27.1327 63.2666 34.6112 
27.8192 63.4318 34.665 
29.056 64.7169 34.7903 
83.8047 29.487 58.8476 
82.0769 32.0961 58.5381 
88.1086 49.2426 30.0564 
15.3844 35.7762 50.4105 
19.369 34.0398 52.2481 
18.9202 28.4781 51.9701 
53.0643 78.4259 40.6151 
53.1786 78.7729 38.0332 
59.4461 74.493 48.5311 
58.8217 76.0401 45.9834 
57.7781 82.3511 30.7993 
55.7531 83.8888 31.3656 
52.1575 82.9426 31.2821 
61.1842 80.4576 31.2668 
59.8543 79.7561 33.68 
56.699 79.2356 33.6903 
55.2914 79.5826 37.3186 
62.9596 14.1699 70.7007 
88.1424 69.3397 17.5408 
88.7097 69.5125 16.9026 
88.428 71.0264 15.7746 
93.1673 68.7912 14.1938 
88.8845 66.71 20.3208 
90.054 65.6368 20.4649 
91.1211 65.4073 20.4649 
94.5736 67.6212 15.5591 
45.3141 48.6113 59.8076 
100.978 40.5096 38.0062 
41.2111 42.109 58.9134 
40.6878 45.721 58.0872 
36.8755 41.2126 56.9258 
40.2166 40.5862 58.6382 
45.4645 42.3854 59.8494 
92.3905 70.7135 7.82588 
90.833 71.7159 4.69948 
90.1666 73.5599 5.59945 
89.7412 73.3978 10.5666 
90.8109 71.4606 12.0243 
92.3933 70.2512 10.8995 
88.8942 74.8672 10.8122 
90.4414 71.0518 1.78113 
91.2655 68.6199 0.544906 
91.8429 66.8743 0.863513 
94.3624 66.1375 3.80062 
92.9036 69.6547 11.0954 
54.3944 8.55976 63.483 
57.1131 7.86572 63.7375 
44.7666 11.6691 62.7664 
45.3436 11.1046 58.8318 
39.4242 16.4967 63.7631 
40.5639 19.846 66.8053 
40.2904 25.0418 66.6571 
39.6302 23.2582 66.5736 
45.9219 25.0971 70.2071 
44.4182 26.2735 68.6945 
41.0222 27.9052 64.7701 
77.631 12.0613 54.2438 
72.279 9.36946 54.7138 
72.3531 9.25379 51.1381 
75.4463 10.4684 51.0544 
76.9466 11.247 46.9911 
96.5981 29.5917 45.1358 
90.9016 32.2144 47.0067 
55.0134 70.7509 52.1775 
55.6732 73.6308 49.784 
53.8112 74.574 47.5152 
49.6273 70.4198 51.7192 
53.0645 70.294 52.3734 
63.6607 79.6838 30.8515 
67.0426 80.5875 29.5085 
62.1071 80.4248 30.7932 
62.0266 79.4669 35.3687 
96.4971 50.7455 6.8668 
92.1534 52.3418 6.01418 
91.9003 54.5974 4.53028 
92.2892 57.4313 2.46414 
51.9955 67.1922 54.699 
47.4058 65.807 54.3977 
57.4945 69.8567 52.5927 
58.9648 66.8367 54.7394 
25.3319 23.6876 54.0682 
31.9461 78.2072 28.63 
30.0404 78.0594 26.709 
34.0989 78.7389 29.1245 
34.9909 77.7897 30.4742 
29.6821 81.5116 23.784 
30.4218 82.8214 23.7419 
87.5167 66.7856 20.9796 
58.0305 35 63.2054 
58.7309 34.7291 64.193 
64.4109 35.455 63.7206 
65.632 35.8584 62.7436 
57.9888 34.2969 65.4624 
53.1142 35.6126 62.4927 
28.7165 41.6131 48.8255 
75.6838 34.0305 67.466 
32.3267 33.4126 56.2171 
34.5933 32.3312 58.0852 
55.8423 77.7318 41.9932 
56.8563 76.5173 45.6687 
59.2007 78.5994 40.5029 
59.3956 78.7151 39.7202 
27.0848 40.601 49.335 
26.6763 48.8456 40.9566 
26.1823 49.0959 41.3137 
23.7922 49.3632 43.0942 
23.3345 48.8732 44.4094 
25.9773 44.9318 46.8187 
71.2067 37.2638 59.8912 
71.2689 35.8419 62.6268 
68.7362 40.4029 58.6239 
71.4267 39.5345 58.2411 
15.0132 38.8081 50.0764 
10.4945 39.4424 44.7107 
10.3527 33.3149 40.0538 
10.9568 33.0245 33.5584 
10.2948 33.546 39.257 
38.4755 77.0347 32.6359 
37.1734 76.7335 32.3824 
35.5405 74.4194 32.9652 
35.7789 73.2815 36.0335 
76.1426 11.4516 45.1708 
74.3767 13.8221 34.0996 
69.2289 9.77432 44.9524 
69.0822 9.36946 48.7219 
97.7118 46.4425 9.85495 
10.1792 41.6104 44.271 
8.7911 40.428 36.903 
8.76218 44.6098 35.2416 
8.94281 40.636 35.9426 
12.2876 45.2701 45.8662 
13.8421 48.834 45.4404 
11.373 50.6417 41.0859 
9.08028 47.9813 37.7974 
12.7818 54.3678 40.2457 
12.8826 56.4359 37.7624 
10.6456 55.0239 34.005 
9.32609 45.6808 28.73 
10.0635 53.0049 28.5882 
10.3671 55.0277 30.4692 
50.2801 37.1601 61.1441 
52.8912 36.5789 61.4643 
46.3959 39.7039 60.4425 
49.7701 38.9504 60.8935 
30.2773 49.9655 40.8776 
29.6294 49.4767 40.6583 
10.4105 34.1044 32.7024 
15.8471 33.5219 25.0671 
21.0218 26.5154 29.551 
82.807 90.1671 7.98598 
86.4507 83.1106 9.70552 
83.3774 87.8625 6.40939 
89.0099 75.0378 5.26138 
88.5472 76.0741 8.35833 
87.2748 79.7561 8.08986 
36.0019 33.9736 58.0431 
56.3244 85.9139 31.919 
27.9878 50.0567 39.8857 
30.5168 53.6323 39.1296 
27.15 52.2839 39.0921 
29.1759 54.0026 38.5492 
22.6773 53.6765 41.8069 
23.4102 54.5984 39.2239 
70.7032 85.6277 29.2356 
71.0228 88.4664 29.2361 
30.5112 86.0024 18.8097 
39.4724 13.1607 51.5413 
62.6331 79.0976 37.7289 
11.1913 57.4653 29.795 
15.9843 59.8803 35.6188 
16.6568 60.4154 35.525 
35.9527 77.9022 30.7707 
77.3082 35.1355 61.3117 
79.4414 33.2665 62.4568 
74.9726 35.9163 62.7102 
96.3336 44.3549 35.0598 
97.3962 43.1458 36.8173 
16.8113 34.0495 24.5907 
15.7218 38.9187 21.1331 
11.8564 42.7075 21.0079 
68.2882 80.144 29.4444 
69.3038 78.3409 30.4328 
72.9741 81.4199 27.8258 
73.2246 82.5061 27.8991 
46.4978 67.4948 52.8502 
35.1355 68.8801 41.3491 
55.0927 96.0563 30.9788 
53.325 98.9489 28.1721 
55.186 101.063 26.1371 
27.3863 56.8595 38.0142 
28.7634 59.0408 36.9501 
92.6377 43.4205 34.8485 
92.0116 43.782 34.2564 
23.9921 41.7825 49.3037 
20.8034 35.3903 52.5681 
19.2665 43.7495 49.8362 
65.5451 50.6517 59.4735 
70.5309 56.091 55.6739 
20.7632 26.6047 52.1267 
80.0939 70.2032 30.0798 
95.1595 63.2916 22.6367 
19.2041 48.7791 46.7098 
18.0763 45.5464 48.9366 
21.2473 52.839 42.9113 
20.1975 52.9778 43.18 
17.0503 50.1238 45.9495 
18.5076 68.6102 27.5043 
23.9644 59.5977 37.6164 
24.8977 57.5896 38.0831 
32.8796 67.6373 38.5074 
33.0514 68.4517 37.3375 
33.9117 71.4277 36.2961 
15.3217 58.6635 37.646 
91.898 63.0319 22.5652 
84.216 81.7196 1.48637 
83.0339 87.2391 4.20795 
18.9066 39.9957 20.1725 
31.3117 67.4659 36.3774 
68.4211 9.47505 44.4229 
57.9338 51.1744 60.5594 
29.7856 61.7064 38.1186 
22.3204 26.8631 53.9188 
21.8929 34.871 53.334 
7 0 1 2 3 4 5 6 
4 0 7 8 6 
7 8 9 10 11 12 5 6 
6 13 14 15 16 17 18 
6 19 20 16 17 21 22 
6 23 24 25 26 27 28 
7 29 30 31 23 28 32 33 
6 32 28 27 34 35 36 
8 37 38 39 40 41 42 43 44 
6 45 46 47 48 49 50 
5 45 51 52 53 50 
5 54 55 56 57 58 
8 59 60 61 62 54 58 63 64 
5 57 65 66 63 58 
6 67 68 69 70 71 72 
6 67 73 74 75 76 68 
6 77 69 68 76 78 79 
8 37 80 81 82 83 84 85 44 
5 86 87 88 89 90 
6 91 92 93 94 95 96 
6 97 98 99 94 95 100 
4 101 102 103 104 
6 105 102 101 106 107 108 
5 103 109 110 105 102 
5 111 112 113 114 115 
7 116 117 118 112 113 119 120 
5 88 87 121 122 123 
8 124 125 126 127 121 87 86 128 
6 129 130 131 73 67 72 
5 129 132 133 134 72 
7 135 136 137 138 139 140 141 
8 142 143 144 145 136 135 146 147 
6 148 149 150 151 152 153 
7 154 155 156 149 150 157 158 
7 159 133 132 151 150 157 160 
6 161 162 163 164 165 166 
5 161 167 168 169 166 
8 165 170 171 172 173 174 169 166 
4 41 175 176 42 
6 177 178 179 180 181 182 
5 177 183 184 185 182 
5 186 158 157 160 187 
6 186 188 189 190 191 187 
5 160 159 192 191 187 
4 193 194 195 196 
7 193 197 198 199 200 201 196 
8 195 196 201 202 203 204 205 206 
8 207 208 209 210 211 197 198 212 
6 48 47 213 214 215 216 
7 213 214 217 218 219 220 221 
7 222 223 224 215 214 217 225 
6 226 227 228 229 230 231 
6 232 233 227 226 234 235 
5 236 228 227 233 237 
5 238 239 240 241 242 
5 238 243 244 245 242 
5 246 247 248 249 250 
6 251 252 247 246 253 254 
6 27 26 248 247 255 34 
5 252 247 255 256 257 
6 258 259 260 261 262 263 
6 264 259 260 265 266 267 
4 13 268 269 18 
6 17 21 270 271 269 18 
6 272 273 274 275 276 277 
5 275 250 249 278 274 
7 273 279 280 281 282 278 274 
5 283 284 7 8 9 
6 1 285 286 284 7 0 
7 286 284 283 287 288 289 290 
7 291 292 293 294 295 296 297 
4 292 298 299 293 
6 300 301 294 293 299 302 
5 303 304 305 306 307 
6 308 309 310 305 306 311 
9 312 313 314 315 316 317 318 60 59 
6 314 315 319 320 321 322 
8 323 324 325 326 327 328 329 330 
7 331 332 329 328 333 334 335 
6 333 328 327 336 337 338 
6 283 287 339 340 10 9 
5 300 341 342 343 302 
6 343 344 345 298 299 302 
6 346 347 348 349 350 351 
6 348 349 352 353 354 355 
6 356 357 358 359 360 361 
5 356 362 363 364 357 
6 356 362 365 366 367 361 
7 43 42 176 368 369 370 371 
6 176 175 372 373 374 368 
6 369 375 376 377 374 368 
6 378 313 314 322 379 380 
7 381 382 383 384 385 386 387 
6 388 389 382 381 390 391 
4 389 392 383 382 
7 89 88 123 218 217 225 393 
5 394 395 386 385 396 
6 394 397 398 310 399 396 
7 385 396 399 400 401 402 384 
5 376 377 403 404 405 
6 376 375 406 407 408 405 
8 408 409 410 411 412 413 404 405 
6 409 408 407 414 415 416 
8 84 83 417 418 419 420 421 422 
5 84 85 116 117 422 
6 423 424 425 426 427 428 
5 423 429 430 431 428 
6 427 432 433 434 431 428 
7 435 436 437 438 439 440 441 
6 442 443 435 436 444 445 
6 446 155 154 447 448 449 
5 450 447 154 158 186 
7 451 452 450 447 448 453 454 
7 192 455 456 457 458 190 191 
6 459 378 313 312 460 461 
6 245 462 331 335 241 242 
7 462 463 464 465 466 244 245 
5 331 462 463 467 332 
6 122 468 469 219 218 123 
6 470 220 219 469 471 472 
7 473 474 475 468 469 471 476 
5 232 477 478 479 235 
6 477 480 481 482 233 232 
5 478 477 480 483 484 
5 482 481 485 486 487 
7 49 488 489 490 491 53 50 
5 482 233 237 492 487 
6 493 14 13 494 495 496 
5 497 498 499 500 501 
6 497 498 464 463 467 502 
6 499 503 504 465 464 498 
6 505 429 430 506 507 508 
7 430 506 509 510 511 434 431 
7 512 513 514 515 516 517 518 
7 519 520 521 516 517 522 523 
5 303 524 525 526 307 
5 304 303 524 527 528 
7 304 305 310 398 74 75 528 
7 12 529 530 531 532 4 5 
5 493 532 4 3 496 
5 533 534 535 536 537 
6 133 159 192 455 538 134 
6 539 540 541 542 543 544 
6 545 546 540 541 547 548 
7 549 546 540 539 550 551 552 
7 553 554 40 41 175 372 555 
5 556 554 553 557 558 
6 164 209 210 559 170 165 
6 560 561 562 563 564 565 
5 566 561 560 567 568 
5 569 570 571 538 71 
6 572 571 570 573 272 277 
6 46 47 213 221 574 575 
5 576 531 530 577 578 
7 14 493 532 531 576 579 15 
7 580 581 582 583 584 574 575 
8 580 585 586 587 51 45 46 575 
6 588 589 590 591 592 593 
6 592 591 594 595 596 597 
5 244 243 598 599 466 
6 599 600 601 504 465 466 
6 573 602 603 279 273 272 
6 573 570 569 604 605 602 
6 603 602 605 606 607 608 
7 609 610 611 168 167 612 613 
8 167 612 614 615 616 617 162 161 
6 535 618 336 327 326 534 
7 619 620 621 622 425 424 623 
4 619 624 625 623 
7 625 623 424 423 429 505 626 
4 627 628 629 630 
6 291 631 630 627 632 297 
7 633 634 635 631 630 629 636 
6 205 204 637 638 31 30 
6 29 30 205 206 639 640 
6 547 541 542 641 642 643 
6 95 100 644 146 135 141 
6 645 646 647 648 649 650 
6 178 179 543 542 641 651 
5 588 593 652 381 387 
6 588 589 653 395 386 387 
6 639 206 195 194 654 655 
6 656 657 658 659 400 401 
5 402 401 656 660 661 
6 437 436 444 662 663 664 
6 437 438 665 666 667 668 
6 664 437 668 669 670 671 
5 672 673 674 675 676 
6 677 678 676 672 340 339 
5 677 339 287 288 679 
7 677 678 680 681 682 683 684 
4 677 679 685 684 
6 181 686 687 688 185 182 
6 180 689 690 691 686 181 
7 383 392 271 270 661 402 384 
7 692 693 694 598 243 695 696 
5 692 697 698 699 696 
5 700 695 696 699 701 
6 702 703 704 705 620 619 
5 704 706 707 708 703 
8 709 710 711 712 713 628 629 636 
6 632 627 628 713 473 474 
7 156 155 446 714 715 595 594 
8 178 651 671 670 716 717 183 177 
7 142 718 171 172 719 720 147 
4 720 644 146 147 
5 536 535 618 682 681 
6 105 721 722 550 551 108 
4 110 105 721 723 
9 52 724 725 608 603 279 280 491 53 
5 585 607 608 725 586 
7 397 394 395 653 153 152 726 
7 440 697 698 727 728 729 439 
6 697 440 441 730 693 692 
7 357 364 731 732 733 734 358 
5 310 309 659 400 399 
5 308 309 659 658 735 
5 572 736 737 276 277 
6 738 739 722 550 539 544 
5 738 739 740 690 689 
6 722 721 723 741 740 739 
8 742 743 744 745 746 624 625 626 
5 702 747 746 624 619 
4 435 443 730 441 
7 560 567 748 749 750 751 565 
4 752 69 77 753 
5 754 755 753 752 756 
7 757 758 759 510 511 760 761 
5 762 509 510 759 763 
4 59 312 460 64 
6 683 764 765 766 685 684 
6 766 765 767 266 265 768 
6 769 770 771 772 773 774 
5 772 771 775 776 777 
6 772 761 757 645 646 777 
5 760 778 773 772 761 
7 184 183 717 770 771 775 779 
5 775 776 780 781 779 
7 782 296 297 632 474 475 783 
6 77 753 755 784 785 79 
6 784 755 754 582 583 786 
5 735 658 657 787 788 
6 735 789 633 634 790 788 
5 790 791 792 787 788 
6 115 114 793 794 795 796 
5 115 797 798 799 796 
7 799 800 801 415 414 795 796 
7 737 802 253 246 250 275 276 
6 737 802 803 456 455 736 
5 308 735 789 804 311 
5 709 804 789 633 636 
5 609 805 806 807 610 
5 698 727 808 809 699 
5 622 425 426 810 811 
6 43 44 85 116 120 371 
5 812 813 814 700 701 
5 812 815 816 817 701 
5 699 809 818 817 701 
6 316 317 35 34 255 256 
5 819 318 317 35 36 
6 576 579 820 821 822 578 
7 823 821 820 824 825 826 827 
6 184 779 781 828 688 185 
5 584 470 220 221 574 
6 829 786 583 584 470 472 
6 830 831 523 522 832 833 
6 687 831 523 519 691 686 
5 830 831 230 229 834 
6 231 230 831 687 688 828 
6 835 836 837 838 839 840 
6 577 841 838 839 822 578 
6 231 226 234 780 781 828 
6 836 842 843 844 845 835 
7 342 845 835 840 846 344 343 
5 847 848 33 29 640 
8 639 640 847 55 56 849 850 655 
6 851 852 65 57 56 849 
5 851 145 144 850 849 
5 76 75 528 527 78 
5 571 538 455 736 572 
5 653 153 148 590 589 
7 853 854 852 65 66 855 856 
5 857 853 856 733 734 
6 459 732 733 856 855 461 
7 858 25 26 248 249 278 282 
6 858 25 24 859 860 861 
5 862 861 858 282 281 
5 756 754 582 581 863 
7 604 864 752 756 863 606 605 
6 585 607 606 863 581 580 
6 594 156 149 148 590 591 
7 865 866 867 666 667 868 869 
5 867 666 665 729 728 
5 870 871 262 263 872 
7 870 707 706 873 816 815 872 
5 815 812 258 263 872 
7 301 874 875 876 877 341 300 
4 774 878 879 769 
8 865 880 881 778 773 774 878 869 
6 719 720 644 100 97 882 
5 404 413 883 884 403 
5 883 885 886 412 413 
8 885 883 884 887 888 503 504 601 
5 579 820 824 889 15 
6 19 792 825 824 889 20 
7 492 890 891 892 893 486 487 
5 894 891 892 379 380 
6 364 731 894 891 890 895 
6 521 520 741 723 110 109 
6 109 521 516 515 896 103 
6 742 743 652 593 592 597 
6 742 597 596 508 505 626 
6 251 252 257 319 320 897 
5 319 315 316 256 257 
5 91 514 513 898 96 
6 140 899 898 96 95 141 
4 20 889 15 16 
6 900 901 811 622 621 902 
6 818 903 902 900 808 809 
6 514 515 896 904 92 91 
8 101 106 905 906 907 908 909 104 
4 645 650 758 757 
5 486 485 910 911 893 
5 485 481 480 483 912 
4 485 910 913 912 
6 613 609 805 914 915 916 
6 613 612 614 917 918 916 
6 442 919 920 921 922 445 
9 346 923 862 281 280 491 490 924 351 
6 923 925 926 860 861 862 
7 874 301 294 295 125 124 927 
5 915 928 929 918 916 
8 930 931 929 928 932 933 934 935 
5 935 934 936 937 938 
6 935 930 939 940 941 938 
5 364 363 942 943 895 
6 363 362 365 944 945 942 
4 946 108 107 947 
6 614 917 948 949 950 615 
6 11 951 673 672 340 10 
6 529 952 953 951 11 12 
6 433 434 511 760 778 881 
6 683 682 618 336 337 764 
7 323 558 557 501 497 502 330 
5 841 838 837 954 955 
4 611 174 169 168 
7 841 577 530 529 952 956 955 
5 360 957 512 367 361 
7 804 709 710 526 307 306 311 
6 258 259 264 958 813 812 
5 947 107 106 905 959 
6 960 946 947 959 961 962 
6 961 959 905 906 963 964 
6 265 260 261 965 966 768 
6 501 500 967 555 553 557 
6 372 555 967 888 887 373 
6 377 374 373 887 884 403 
6 495 564 563 2 3 496 
7 718 559 210 211 968 143 142 
6 194 193 197 211 968 654 
6 131 73 74 398 397 726 
5 131 130 151 152 726 
6 818 903 969 873 816 817 
6 970 971 972 111 112 118 
7 660 656 657 787 792 19 22 
5 660 661 270 21 22 
6 738 544 543 179 180 689 
5 329 332 467 502 330 
6 366 367 512 518 832 833 
4 518 517 522 832 
5 237 943 895 890 492 
5 943 942 945 236 237 
7 598 694 919 920 973 600 599 
6 412 886 973 920 921 411 
5 503 888 967 500 499 
5 457 974 975 803 456 
6 974 457 458 910 911 976 
5 473 713 712 977 476 
6 471 472 829 978 977 476 
5 931 948 917 918 929 
8 930 931 948 949 979 980 981 939 
6 982 983 566 561 562 984 
7 871 982 984 985 965 261 262 
7 2 1 285 985 984 562 563 
5 667 668 669 986 868 
6 127 121 122 468 475 783 
4 880 432 433 881 
5 642 663 662 987 643 
6 651 641 642 663 664 671 
6 767 266 267 988 989 990 
6 767 990 338 337 764 765 
5 381 652 743 744 390 
6 741 520 519 691 690 740 
6 960 962 991 992 549 552 
5 960 946 108 551 552 
6 251 254 975 974 976 897 
5 975 803 802 253 254 
6 145 136 137 854 852 851 
5 137 854 853 857 138 
7 848 62 61 819 36 32 33 
4 785 993 977 978 
8 785 993 994 525 524 527 78 79 
5 993 994 711 712 977 
6 654 968 143 144 850 655 
6 286 285 985 965 966 290 
6 995 996 806 805 914 997 
7 865 880 432 427 426 810 866 
6 958 264 267 988 240 239 
5 569 604 864 70 71 
5 24 859 638 31 23 
5 957 512 513 898 899 
6 745 748 567 568 747 746 
6 749 748 745 744 390 391 
6 766 685 679 288 289 768 
4 768 966 290 289 
5 705 969 873 706 704 
6 903 969 705 620 621 902 
5 451 454 998 478 484 
6 998 648 649 999 453 454 
6 611 610 807 1000 173 174 
7 268 1001 388 389 392 271 269 
6 268 1001 750 751 494 13 
6 291 631 635 1002 298 292 
5 848 847 55 54 62 
5 770 717 716 879 769 
5 879 986 669 670 716 
5 345 344 846 823 827 
4 69 70 864 752 
5 913 910 458 190 189 
4 71 72 134 538 
5 407 414 795 794 406 
6 995 909 908 1003 1004 997 
6 908 907 1005 1006 1007 1003 
6 944 945 236 228 229 834 
5 793 114 113 119 1008 
6 830 833 366 365 944 834 
6 991 992 798 797 1009 1010 
5 991 1010 964 961 962 
8 444 662 987 1011 1012 1013 922 445 
5 370 1008 119 120 371 
7 369 375 406 794 793 1008 370 
6 937 1014 971 970 941 938 
6 345 298 1002 1015 826 827 
5 333 334 989 990 338 
5 1016 956 952 953 1017 
4 586 725 724 587 
4 724 52 51 587 
6 982 983 708 707 870 871 
5 239 958 813 814 238 
5 419 420 981 980 1018 
5 1007 933 932 1004 1003 
6 1004 932 928 915 914 997 
7 421 940 941 970 118 117 422 
6 855 66 63 64 460 461 
8 483 484 451 452 188 189 913 912 
4 188 452 450 186 
4 1011 548 1019 1012 
5 547 548 1011 987 643 
6 734 857 138 139 359 358 
6 909 104 103 896 904 995 
6 443 730 693 694 919 442 
4 439 438 665 729 
7 1014 937 936 1006 1005 963 964 
5 1006 1007 933 934 936 
6 637 204 203 1020 925 926 
5 637 638 859 860 926 
6 478 479 1021 647 648 998 
6 348 355 202 203 1020 347 
5 921 411 410 1013 922 
5 972 111 115 797 1009 
5 923 925 1020 347 346 
7 702 747 568 566 983 708 703 
5 878 879 986 868 869 
6 892 379 322 321 911 893 
5 751 494 495 564 565 
6 762 714 446 449 999 763 
6 999 649 650 758 759 763 
4 453 448 449 999 
5 749 750 1001 388 391 
6 1009 972 971 1014 964 1010 
6 1019 416 409 410 1013 1012 
7 415 416 1019 548 545 1022 801 
5 234 780 1021 479 235 
6 378 459 732 731 894 380 
5 886 973 600 601 885 
5 525 526 710 711 994 
6 791 1015 1002 635 634 790 
5 976 911 321 320 897 
6 719 172 173 1000 1023 882 
5 1022 992 549 546 545 
4 126 127 783 782 
5 126 125 295 296 782 
5 1015 791 792 825 826 
5 978 785 784 786 829 
5 939 981 420 421 940 
6 506 507 715 714 762 509 
5 867 901 811 810 866 
6 900 901 867 728 727 808 
6 904 92 93 1024 996 995 
4 907 1005 963 906 
4 992 800 799 798 
6 780 776 777 646 647 1021 
5 814 238 243 695 700 
8 1024 99 98 1023 1000 807 806 996 
4 1023 882 97 98 
4 170 171 718 559 
4 99 1024 93 94 
5 507 715 595 596 508 
4 819 318 60 61 
6 839 840 846 823 821 822 
4 801 800 992 1022 
4 151 130 129 132 
5 200 354 355 202 201 
6 360 957 899 140 139 359 
6 335 334 989 988 240 241 
7 537 675 676 678 680 681 536 
5 674 1017 953 951 673 
