ply
format ascii 1.0
element vertex 340
property float x
property float y
property float z
element face 124
property list uchar int vertex_index
end_header
0.999149507869247 40.620294 17.7123375
0.999149507869247 12.5167185 22.199463
0.999149507869247 12.5167185 26.6865885
1.165674425847455 56.67948 29.0482335
1.3321993438256627 57.3879735 30.229056
1.4987242618038705 12.5167185 49.594545
1.3321993438256627 12.5167185 51.483861
1.8317740977602863 46.5244065 67.543047
2.164823933716702 60.2219475 46.5244065
1.998299015738494 12.5167185 33.2991945
2.164823933716702 12.5167185 68.015376
2.164823933716702 18.6569955 72.738666
2.164823933716702 48.649887 20.782476
2.164823933716702 51.483861 64.4729085
1.998299015738494 55.734822 26.450423999999998
2.33134885169491 60.930441 37.78632
2.33134885169491 60.930441 43.6904325
2.997448523607741 48.177558 67.070718
2.997448523607741 58.3326315 30.4652205
2.997448523607741 12.5167185 27.867411
3.3304983595641566 12.5167185 29.756727
3.3304983595641566 14.642199 72.5025015
3.3304983595641566 30.229056 71.5578435
3.6635481955205726 23.8526145 69.1961985
3.4970232775423646 55.262493 59.7496185
3.4970232775423646 59.7496185 33.7715235
3.6635481955205726 60.458112 41.092623
3.6635481955205726 12.5167185 66.598389
3.996598031476988 12.5167185 33.7715235
3.83007311349878 12.280554 62.819757
4.163122949455196 25.2696015 69.1961985
4.163122949455196 12.5167185 21.254805
4.329647867433404 21.727134 69.6685275
4.329647867433404 54.790164 61.6389345
4.329647867433404 31.4098785 15.586857
4.496172785411612 38.9671425 71.0855145
4.66269770338982 42.981939 69.6685275
4.496172785411612 48.177558 21.254805
4.995747539346235 12.5167185 30.229056
4.995747539346235 38.258649 16.7676795
5.162272457324443 32.8268655 71.794008
5.328797375302651 50.7753675 23.61645
5.495322293280859 12.280554 22.9079565
5.162272457324443 12.5167185 58.568796
5.495322293280859 12.5167185 54.317835
5.495322293280859 23.8526145 15.586857
5.661847211259067 58.8049605 53.1370125
5.661847211259067 12.5167185 26.2142595
5.661847211259067 36.6054975 71.5578435
5.994897047215482 25.978095 15.8230215
6.16142196519369 12.5167185 53.845506
6.16142196519369 17.003844 17.2400085
6.327946883171898 17.948502 17.2400085
6.327946883171898 43.6904325 68.960034
6.16142196519369 47.705229 67.070718
6.494471801150106 57.151809 56.207151
6.16142196519369 59.7496185 51.011532
6.827521637106521 12.5167185 46.760571
6.660996719128313 24.561108 68.2515405
6.827521637106521 12.5167185 37.5501555
7.160571473062937 12.5167185 49.594545
7.160571473062937 12.752883 45.815913
7.160571473062937 15.8230215 72.266337
7.160571473062937 20.0739825 68.487705
7.493621309019353 12.5167185 38.4948135
7.327096391041145 60.2219475 40.620294
7.826671144975768 12.5167185 60.6942765
7.327096391041145 17.003844 17.7123375
7.66014622699756 21.9632985 67.070718
7.66014622699756 58.096467 32.8268655
7.826671144975768 12.280554 68.015376
7.826671144975768 12.5167185 54.790164
7.66014622699756 12.5167185 41.092623
7.826671144975768 12.5167185 61.40277
7.826671144975768 13.697541 17.7123375
7.993196062953976 55.9709865 28.812069
8.326245898910392 12.280554 59.7496185
7.993196062953976 56.67948 56.4433155
8.326245898910392 57.8603025 34.007688
8.825820652845016 12.5167185 45.343584
8.825820652845016 12.752883 70.377021
8.992345570823224 52.6646835 61.6389345
8.825820652845016 59.985783 41.564952
9.158870488801432 12.5167185 43.2181035
9.32539540677964 12.752883 68.7238695
8.992345570823224 48.177558 65.8898955
9.491920324757848 25.7419305 69.432363
9.658445242736056 54.0816705 59.7496185
9.824970160714262 12.5167185 26.450423999999998
9.658445242736056 50.066874 64.4729085
9.824970160714262 12.5167185 29.756727
9.99149507869247 29.9928915 70.6131855
9.824970160714262 38.0224845 17.003844
9.99149507869247 12.5167185 19.837818
10.491069832627094 19.1293245 66.8345535
10.158019996670678 51.7200255 25.505766
9.99149507869247 59.2772895 49.594545
10.158019996670678 59.985783 46.760571
10.324544914648886 42.2734455 18.89316
10.491069832627094 12.5167185 37.78632
10.657594750605302 12.280554 30.701385
10.82411966858351 12.5167185 46.0520775
10.491069832627094 13.4613765 19.837818
10.82411966858351 17.7123375 17.2400085
10.82411966858351 19.6016535 65.4175665
10.82411966858351 25.505766 17.948502
10.82411966858351 58.096467 34.480017
10.990644586561718 15.3506925 19.365489
10.990644586561718 12.5167185 65.181402
11.157169504539926 12.752883 66.8345535
11.157169504539926 14.642199 21.0186405
11.323694422518134 12.5167185 46.9967355
11.323694422518134 59.041125 38.730978
11.490219340496342 12.5167185 49.8307095
11.656744258474548 20.310147 18.89316
11.823269176452756 12.5167185 55.0263285
11.989794094430964 12.5167185 44.398926
12.32284393038738 12.5167185 25.7419305
11.989794094430964 26.450423999999998 18.1846665
11.823269176452756 37.5501555 70.1408565
12.156319012409172 14.4060345 21.727134
12.156319012409172 17.7123375 68.015376
12.489368848365588 12.9890475 58.096467
12.156319012409172 40.147965 68.7238695
12.822418684322004 12.280554 52.900847999999996
12.988943602300212 31.4098785 69.6685275
12.988943602300212 41.092623 67.543047
12.988943602300212 43.2181035 20.310147
12.655893766343796 43.926597 66.8345535
12.988943602300212 47.2329 22.199463
12.988943602300212 56.207151 54.317835
13.321993438256627 12.5167185 44.871255
13.488518356234835 19.6016535 64.709073
13.488518356234835 29.9928915 18.6569955
13.15546852027842 33.535359 17.948502
13.15546852027842 34.7161815 69.904692
13.321993438256627 57.3879735 51.7200255
13.655043274213043 49.3583805 63.292086
13.655043274213043 54.0816705 57.624138
13.655043274213043 55.4986575 55.262493
13.488518356234835 52.900847999999996 27.395082
13.82156819219125 56.67948 32.3545365
14.154618028147667 12.5167185 67.7792115
14.154618028147667 16.059186 67.070718
13.988093110169459 18.420831 64.4729085
14.487667864104083 16.2953505 66.12606
14.487667864104083 45.343584 65.181402
14.820717700060499 47.4690645 63.5282505
14.65419278208229 12.5167185 31.4098785
14.487667864104083 12.752883 56.9156445
14.820717700060499 19.6016535 21.727134
14.820717700060499 30.229056 68.960034
14.987242618038707 24.7972725 67.3068825
15.153767536016913 12.5167185 59.985783
15.32029245399512 20.5463115 21.727134
15.32029245399512 21.4909695 63.764415
15.486817371973329 12.752883 58.096467
15.653342289951537 40.3841295 67.070718
15.486817371973329 52.6646835 26.6865885
15.32029245399512 52.428519 58.568796
15.486817371973329 56.9156445 33.06303
15.653342289951537 12.5167185 44.1627615
15.653342289951537 12.5167185 25.7419305
15.653342289951537 12.5167185 37.78632
15.653342289951537 12.5167185 61.1666055
15.653342289951537 22.4356275 21.254805
15.486817371973329 26.450423999999998 67.7792115
15.819867207929745 17.476173 61.875099
15.653342289951537 58.3326315 40.620294
15.819867207929745 13.697541 68.960034
15.819867207929745 58.8049605 44.398926
16.319441961864367 12.5167185 40.8564585
16.15291704388616 12.5167185 54.0816705
15.653342289951537 17.476173 23.144121
15.986392125907953 17.948502 60.930441
16.319441961864367 16.059186 64.9452375
16.485966879842575 20.782476 62.347428
16.319441961864367 36.6054975 68.015376
16.319441961864367 48.177558 23.61645
16.485966879842575 58.096467 39.675636
16.652491797820783 12.5167185 30.701385
16.652491797820783 16.059186 62.347428
16.9855416337772 12.5167185 67.543047
16.9855416337772 12.5167185 28.33974
16.81901671579899 41.564952 65.4175665
17.485116387711823 37.0778265 19.1293245
17.318591469733615 56.207151 49.594545
17.152066551755407 12.5167185 37.313991
17.318591469733615 12.5167185 44.871255
17.318591469733615 12.5167185 49.3583805
17.318591469733615 32.118372 68.015376
17.318591469733615 41.3287875 20.310147
17.65164130569003 56.4433155 48.649887
17.65164130569003 34.2438525 67.3068825
17.81816622366824 51.483861 57.8603025
18.151216059624655 12.5167185 46.288242
17.984691141646447 13.697541 33.7715235
17.984691141646447 14.4060345 27.1589175
17.81816622366824 21.254805 62.347428
18.151216059624655 14.8783635 24.088779
18.151216059624655 17.2400085 28.1035755
18.48426589558107 19.1293245 26.6865885
18.151216059624655 54.5539995 53.1370125
18.48426589558107 17.476173 31.4098785
18.65079081355928 23.144121 21.0186405
18.317740977602863 46.288242 61.6389345
18.65079081355928 47.4690645 23.3802855
18.817315731537487 55.0263285 32.3545365
18.817315731537487 57.151809 39.9118005
18.65079081355928 13.225211999999999 53.845506
18.817315731537487 13.697541 42.037281
18.65079081355928 13.9337055 55.0263285
18.817315731537487 14.8783635 55.0263285
18.817315731537487 29.0482335 19.1293245
19.150365567493903 15.3506925 39.4394715
19.150365567493903 41.564952 63.764415
18.983840649515695 44.6350905 62.347428
19.150365567493903 47.9413935 59.985783
19.31689048547211 51.7200255 55.4986575
19.150365567493903 53.373177 29.756727
19.31689048547211 14.8783635 41.3287875
19.48341540345032 28.1035755 66.3622245
19.48341540345032 16.7676795 58.3326315
19.649940321428524 20.5463115 25.033437
19.81646523940673 40.8564585 63.764415
19.81646523940673 42.2734455 21.727134
20.149515075363148 55.4986575 35.6608395
20.482564911319564 29.9928915 19.365489
20.482564911319564 35.424675 65.181402
20.81561474727598 55.734822 42.50961
20.81561474727598 17.7123375 58.3326315
21.148664583232396 27.1589175 64.709073
20.982139665254188 33.2991945 19.837818
21.481714419188812 50.3030385 55.262493
21.315189501210604 54.0816705 47.705229
21.481714419188812 16.531515 53.845506
21.814764255145228 20.310147 59.985783
21.814764255145228 21.0186405 25.505766
21.64823933716702 46.5244065 58.568796
21.981289173123436 34.7161815 64.9452375
21.64823933716702 41.3287875 22.199463
21.64823933716702 48.649887 25.7419305
21.814764255145228 54.317835 45.5797485
21.981289173123436 16.2953505 45.1074195
21.981289173123436 17.2400085 55.0263285
21.814764255145228 18.420831 30.9375495
22.147814091101644 19.837818 29.5205625
22.48086392705806 49.8307095 28.1035755
22.647388845036268 16.7676795 45.1074195
22.314339009079852 34.952346 21.0186405
22.980438680992684 29.284398 63.764415
22.980438680992684 53.6093415 36.1331685
22.980438680992684 16.7676795 38.258649
22.980438680992684 50.066874 53.373177
23.14696359897089 51.247696499999996 50.7753675
23.646538352905512 17.003844 37.5501555
23.646538352905512 17.7123375 34.2438525
23.313488516949096 21.254805 59.7496185
23.97958818886193 49.3583805 29.5205625
23.97958818886193 53.1370125 38.258649
24.479162942796552 26.922753 22.9079565
24.312638024818344 40.8564585 59.985783
24.64568786077476 44.398926 25.978095
24.479162942796552 17.003844 46.5244065
24.64568786077476 42.7457745 24.7972725
24.81221277875297 45.1074195 56.4433155
24.978737696731176 17.003844 49.594545
24.978737696731176 17.2400085 46.0520775
24.64568786077476 25.978095 23.61645
25.311787532687593 42.981939 57.151809
25.145262614709385 46.760571 53.845506
25.311787532687593 47.4690645 29.0482335
25.311787532687593 52.1923545 44.6350905
25.311787532687593 20.310147 56.9156445
25.4783124506658 45.5797485 27.6312465
25.64483736864401 26.450423999999998 61.1666055
25.64483736864401 33.7715235 22.4356275
25.811362286622217 35.6608395 60.2219475
25.977887204600425 31.4098785 23.3802855
26.144412122578633 51.011532 38.9671425
26.31093704055684 49.594545 48.177558
26.31093704055684 18.1846665 38.258649
26.31093704055684 31.4098785 60.6942765
26.643986876513253 50.539203 42.2734455
26.97703671246967 39.9118005 25.033437
27.143561630447877 49.3583805 37.0778265
27.143561630447877 21.4909695 56.4433155
27.143561630447877 22.671792 29.284398
27.310086548426085 25.033437 27.395082
27.310086548426085 29.0482335 59.7496185
27.143561630447877 45.815913 51.483861
27.80966130236071 46.5244065 49.594545
27.80966130236071 47.4690645 33.535359
28.309236056295333 21.9632985 31.646043
28.47576097427354 27.867411 57.624138
28.808810810229957 39.9118005 26.2142595
28.808810810229957 18.89316 45.343584
28.975335728208165 28.33974 26.922753
29.141860646186373 30.701385 25.978095
29.30838556416458 42.981939 29.0482335
29.30838556416458 20.782476 51.95619
29.641435400120997 39.9118005 53.845506
29.641435400120997 44.871255 47.4690645
29.47491048214279 20.782476 37.5501555
29.807960318099205 40.3841295 52.428519
29.807960318099205 45.815913 43.6904325
29.974485236077413 36.1331685 54.790164
29.807960318099205 44.871255 33.2991945
30.14101015405562 36.1331685 27.395082
30.474059990012034 22.671792 51.483861
30.474059990012034 23.144121 34.007688
30.64058490799024 21.0186405 39.9118005
30.64058490799024 34.7161815 53.845506
30.973634743946658 41.8011165 47.705229
30.64058490799024 28.812069 54.5539995
31.140159661924866 30.4652205 53.373177
31.140159661924866 39.675636 49.3583805
31.306684579903074 22.199463 46.288242
31.806259333837698 43.926597 41.8011165
31.63973441585949 44.1627615 40.147965
31.806259333837698 37.0778265 30.229056
31.806259333837698 42.2734455 37.5501555
31.63973441585949 42.981939 34.480017
31.972784251815906 39.203307 32.3545365
32.30583408777232 37.313991 48.4137225
32.30583408777232 41.092623 43.2181035
32.30583408777232 23.8526145 42.037281
32.30583408777232 23.8526145 45.1074195
32.472359005750526 35.1885105 49.3583805
32.97193375968515 30.9375495 49.3583805
33.13845867766336 32.590701 48.177558
33.304983595641566 38.258649 43.6904325
33.304983595641566 38.4948135 36.369333
33.304983595641566 33.06303 31.646043
34.137608185532606 29.284398 35.424675
34.47065802148902 32.118372 42.50961
34.137608185532606 32.3545365 34.480017
34.304133103510814 36.841662 37.313991
34.304133103510814 36.6054975 41.8011165
34.47065802148902 29.284398 40.8564585
8 93 42 47 88 117 120 110 102
6 50 60 113 124 115 71
6 85 54 53 123 126 128
7 58 86 152 155 132 104 68
6 62 63 94 121 84 80
4 68 63 94 104
5 78 106 112 82 65
7 75 95 140 141 106 78 69
3 70 84 80
4 76 71 115 122
5 77 87 138 139 130
4 79 101 116 83
6 89 81 87 138 159 137
5 82 112 168 170 97
6 85 89 137 147 146 128
6 151 125 91 86 152 166
8 117 88 90 100 148 180 183 162
6 92 134 185 191 127 98
5 95 140 158 178 129
6 97 170 192 186 136 96
4 100 99 163 148
4 111 101 116 131
3 102 107 110
7 107 110 120 173 150 114 103
6 118 105 114 150 154 165
6 141 106 112 168 179 160
7 131 111 113 189 195 188 161
5 124 113 189 209 172
5 124 115 122 149 172
5 117 120 173 199 162
5 118 165 204 213 133
6 119 123 126 157 177 135
4 122 149 156 153
6 177 135 125 151 190 193
5 126 157 184 146 128
6 127 191 225 206 178 129
5 136 186 202 139 130
6 144 167 174 176 155 132
6 213 133 134 185 232 227
6 159 137 147 205 217 194
6 159 138 139 202 218 194
6 141 140 158 219 207 160
6 147 146 184 215 216 205
5 148 180 196 187 163
5 149 156 211 209 172
3 150 173 154
4 151 166 221 190
7 152 155 176 198 231 221 166
6 154 173 201 223 204 165
7 215 184 157 177 193 228 224
6 178 158 219 247 241 206
5 179 208 226 207 160
4 171 210 188 161
4 183 197 199 162
6 171 210 220 214 187 163
8 170 168 179 208 229 242 234 192
5 199 173 201 200 197
6 176 174 222 230 236 198
6 180 183 197 200 203 196
6 191 185 232 249 240 225
8 186 202 218 233 253 254 234 192
8 245 203 196 187 214 252 255 256
5 188 210 220 243 195
10 189 209 211 212 235 266 263 248 243 195
7 190 221 231 250 239 228 193
5 217 238 233 218 194
6 236 198 231 250 275 257
7 201 223 237 246 245 203 200
7 213 204 223 237 268 260 227
4 205 217 238 216
6 206 241 262 264 240 225
6 207 219 247 258 251 226
5 208 229 259 251 226
5 222 212 235 244 230
5 220 214 252 248 243
7 215 216 238 265 269 261 224
5 228 239 277 261 224
6 232 249 276 278 260 227
6 229 242 272 283 279 259
5 236 230 244 273 257
5 238 265 270 253 233
5 242 272 280 254 234
6 235 244 273 286 300 266
5 268 237 246 287 288
4 239 277 282 250
5 240 249 276 284 264
6 247 241 262 274 271 258
5 245 246 287 293 256
6 248 252 255 281 267 263
4 250 275 289 282
7 251 259 279 285 292 271 258
6 270 253 254 280 291 290
6 255 281 303 310 293 256
6 273 286 294 289 275 257
6 268 260 278 298 297 288
5 269 301 306 277 261
6 264 284 295 299 274 262
7 266 300 309 317 296 267 263
6 270 265 269 301 304 290
5 267 281 303 311 296
5 271 274 299 307 292
6 280 272 283 305 302 291
6 284 276 278 298 308 295
8 282 277 306 312 315 314 294 289
6 283 279 285 319 318 305
6 319 285 292 307 322 321
5 286 300 309 314 294
8 287 293 310 334 336 333 297 288
6 291 302 313 316 304 290
7 308 295 299 307 322 323 320
5 311 296 317 327 326
5 308 298 297 333 320
7 316 304 301 306 312 328 324
5 313 302 305 318 325
6 311 303 310 334 339 326
6 317 309 314 315 329 327
5 312 315 329 330 328
5 316 313 325 331 324
8 319 318 325 331 338 337 332 321
6 323 332 337 336 333 320
4 322 323 332 321
6 328 330 335 338 331 324
6 327 329 330 335 339 326
6 336 337 338 335 339 334
